<?xml version="1.0" encoding="UTF-8"?>
<svg id="Layer_1" data-name="Layer 1" xmlns="http://www.w3.org/2000/svg" viewBox="0 0 200 70">
  <defs>
    <style>
      .cls-1 {
        fill: #f5f6f6;
      }

      .cls-2 {
        fill: rgba(240, 88, 34, .4);
      }

      .cls-3, .cls-4 {
        fill: #1c478d;
      }

      .cls-4 {
        fill-rule: evenodd;
      }

      .cls-5 {
        fill: #f5af2f;
      }
    </style>
  </defs>
  <ellipse class="cls-5" cx="64.11" cy="38.83" rx="23.2" ry="20.98"/>
  <g>
    <path class="cls-1" d="M45.85,44.85v-12.73h5.44c.97,0,1.81.18,2.52.53.72.35,1.27.85,1.66,1.51.39.65.58,1.44.58,2.35s-.21,1.73-.64,2.41c-.42.68-1.02,1.18-1.78,1.52l2.64,4.42h-3.35l-2.28-3.96h-1.9v3.96h-2.89ZM48.7,38.45h2.2c.71,0,1.26-.17,1.64-.5.38-.33.58-.81.58-1.43s-.19-1.1-.58-1.43c-.38-.33-.93-.5-1.64-.5h-2.2v3.86Z"/>
    <path class="cls-1" d="M58.43,44.85l5.06-12.73h2.84l5.06,12.73h-3.09l-.86-2.2h-5.06l-.85,2.2h-3.09ZM63.12,40.38h3.59l-1.81-4.66-1.78,4.66Z"/>
    <path class="cls-1" d="M74.22,44.85v-12.73h5.03c1.35,0,2.53.27,3.53.8,1,.53,1.78,1.28,2.34,2.24.56.96.84,2.06.84,3.32s-.28,2.39-.84,3.34c-.56.95-1.34,1.69-2.34,2.23s-2.18.8-3.53.8h-5.03ZM77.11,42.19h2.09c.75,0,1.41-.15,1.98-.46.57-.31,1.02-.74,1.34-1.3.32-.56.49-1.21.49-1.95s-.16-1.4-.49-1.95c-.32-.55-.77-.98-1.34-1.29-.57-.31-1.24-.47-2.01-.47h-2.05v7.42Z"/>
  </g>
  <path class="cls-2" d="M95.33,45.1c-1.3,0-2.45-.28-3.45-.84-1-.56-1.79-1.34-2.37-2.33-.57-1-.85-2.15-.85-3.44s.28-2.44.84-3.44c.56-.99,1.34-1.77,2.34-2.33,1-.57,2.15-.85,3.44-.85,1.03,0,1.98.18,2.85.55.88.36,1.62.87,2.23,1.53.62.66,1.05,1.44,1.3,2.34h-3.11c-.3-.56-.74-1-1.3-1.3-.56-.31-1.2-.46-1.92-.46s-1.39.17-1.96.51c-.57.34-1.02.81-1.34,1.4-.32.6-.48,1.28-.48,2.05s.16,1.45.47,2.04c.32.6.76,1.07,1.33,1.41.57.35,1.25.52,2.03.52.93,0,1.71-.23,2.33-.7.62-.47,1.02-1.1,1.2-1.88h-4.12v-2.24h7.19c.07,1.09-.04,2.09-.32,3.01-.28.91-.72,1.7-1.3,2.37-.59.67-1.3,1.19-2.15,1.55-.84.36-1.79.54-2.85.54Z"/>
  <path class="cls-2" d="M105.39,44.85v-12.73h8.36v2.43h-5.49v2.64h5.01v2.41h-5.01v2.79h5.7v2.45h-8.56Z"/>
  <path class="cls-2" d="M120.3,44.85l-4.1-12.73h3.08l1.22,3.87,1.34,4.18,1.46-4.18,1.36-3.87h2.75l1.37,3.87,1.47,4.24,1.36-4.24,1.22-3.87h3.06l-4.12,12.73h-2.84l-2.89-8.24-2.89,8.24h-2.85Z"/>
  <path class="cls-2" d="M137.38,44.85l5.06-12.73h2.84l5.06,12.73h-3.09l-.86-2.2h-5.06l-.85,2.2h-3.09ZM142.07,40.38h3.59l-1.81-4.66-1.78,4.66Z"/>
  <path class="cls-2" d="M156.49,44.85v-4.46l-4.69-8.27h3.3l1.58,2.94,1.27,2.31,1.26-2.31,1.56-2.94h3.29l-4.67,8.23v4.5h-2.89Z"/>
  <path class="cls-5" d="M95.33,45.1c-1.3,0-2.45-.28-3.45-.84-1-.56-1.79-1.34-2.37-2.33-.57-1-.85-2.15-.85-3.44s.28-2.44.84-3.44c.56-.99,1.34-1.77,2.34-2.33,1-.57,2.15-.85,3.44-.85,1.03,0,1.98.18,2.85.55.88.36,1.62.87,2.23,1.53.62.66,1.05,1.44,1.3,2.34h-3.11c-.3-.56-.74-1-1.3-1.3-.56-.31-1.2-.46-1.92-.46s-1.39.17-1.96.51c-.57.34-1.02.81-1.34,1.4-.32.6-.48,1.28-.48,2.05s.16,1.45.47,2.04c.32.6.76,1.07,1.33,1.41.57.35,1.25.52,2.03.52.93,0,1.71-.23,2.33-.7.62-.47,1.02-1.1,1.2-1.88h-4.12v-2.24h7.19c.07,1.09-.04,2.09-.32,3.01-.28.91-.72,1.7-1.3,2.37-.59.67-1.3,1.19-2.15,1.55-.84.36-1.79.54-2.85.54Z"/>
  <path class="cls-5" d="M105.39,44.85v-12.73h8.36v2.43h-5.49v2.64h5.01v2.41h-5.01v2.79h5.7v2.45h-8.56Z"/>
  <path class="cls-5" d="M120.3,44.85l-4.1-12.73h3.08l1.22,3.87,1.34,4.18,1.46-4.18,1.36-3.87h2.75l1.37,3.87,1.47,4.24,1.36-4.24,1.22-3.87h3.06l-4.12,12.73h-2.84l-2.89-8.24-2.89,8.24h-2.85Z"/>
  <path class="cls-5" d="M137.38,44.85l5.06-12.73h2.84l5.06,12.73h-3.09l-.86-2.2h-5.06l-.85,2.2h-3.09ZM142.07,40.38h3.59l-1.81-4.66-1.78,4.66Z"/>
  <path class="cls-5" d="M156.49,44.85v-4.46l-4.69-8.27h3.3l1.58,2.94,1.27,2.31,1.26-2.31,1.56-2.94h3.29l-4.67,8.23v4.5h-2.89Z"/>
  <path class="cls-4" d="M84.44,54.3c-4.98,6.62-12.9,10.91-21.82,10.91-9.62,0-18.09-4.98-22.94-12.51-2.75-4.26-4.34-9.33-4.34-14.77,0-.46.01-.91.03-1.36.71-14.43,12.64-25.92,27.25-25.92.6,0,1.19.02,1.78.06-.09.1-.17.21-.22.34-.14.33-.11.7-.13,1.05,0,.14-.2.3-.28.41-.17.22-.27.44-.35.7-.02.06-.03.12-.03.18-.26,0-.51-.01-.76-.01-13.56,0-24.55,10.99-24.55,24.55,0,.21,0,.42,0,.63h0c0,.21.01.42.02.63h0c.01.21.02.42.04.63h0c.02.21.03.42.05.62h0c.04.41.09.82.16,1.23h0c.03.2.06.41.1.61h0c.03.2.07.4.12.6h0c.04.2.08.4.13.6h0c.08.37.18.73.28,1.09,0,.02.01.03.02.05.02.06.03.12.05.18.04.12.07.24.11.36.02.07.04.13.06.2.04.11.07.23.11.34.02.06.04.13.07.2.04.12.09.24.13.36.02.05.04.11.06.16.06.17.13.35.2.52h0c.07.18.14.35.21.51.02.05.04.11.07.16.05.12.1.23.15.35.03.06.05.12.09.19.05.11.1.22.15.32.03.06.06.12.09.18.06.11.11.23.17.34.03.05.05.1.08.15.08.16.17.32.26.48.01.02.02.03.03.05.08.14.16.29.24.43.03.05.06.11.09.16.06.11.12.21.19.32.03.06.07.11.11.17l.19.3c.03.05.07.11.11.17.07.11.14.22.21.32.03.04.06.09.09.14.1.15.2.3.31.45.02.02.03.05.05.07.09.13.18.25.27.37.04.05.07.1.11.15.07.1.15.19.22.29.04.05.08.11.13.16.07.09.15.18.22.28.04.05.09.1.13.16.08.1.17.2.25.3.03.04.07.08.1.12.12.14.24.27.36.41l.07.08c.1.11.2.22.3.32l.13.13c.09.09.17.18.26.26.05.05.09.09.14.14.09.09.17.17.26.25.04.04.09.09.14.13.1.09.19.18.29.27.04.03.07.07.11.1.14.12.27.24.41.36.03.03.06.05.09.08.11.09.22.18.32.27.05.04.1.08.15.12.1.08.19.15.28.23.05.04.1.08.16.12.1.07.19.15.29.22.05.04.1.08.15.12.11.08.22.16.34.25.03.03.07.05.1.07.15.1.3.21.45.31.04.03.07.05.11.08.11.07.23.15.34.23.05.03.11.07.16.1.1.06.2.13.31.19.06.04.12.07.18.11l.31.18c.06.03.11.07.17.1.13.07.25.14.38.21.03.02.07.04.1.06.16.09.32.17.49.26.04.02.09.04.13.06.12.06.24.12.36.18.06.03.12.06.18.09.11.05.21.1.32.15.06.03.13.06.19.09.11.05.22.1.33.15.06.02.12.05.18.08.14.06.28.11.42.17.03.01.06.02.09.04.17.07.35.13.52.2l.15.05c.13.04.26.09.38.13.06.02.13.04.19.06.12.04.23.07.35.11.07.02.13.04.2.06.12.04.24.07.36.11.06.02.12.03.18.05.15.04.31.09.47.13.03,0,.05.01.08.02.18.05.36.09.54.13.06.01.11.02.17.04.13.03.26.05.38.08.07.01.14.03.21.04.12.02.24.05.36.07.07.01.14.02.21.04.13.02.26.04.38.06.06,0,.12.02.18.03.18.03.36.05.53.07.01,0,.02,0,.03,0,.19.02.38.04.57.06.06,0,.12.01.18.02.13.01.27.03.4.04.05,0,.11,0,.17.01.01,0,.03,0,.04,0,.13.01.25.02.38.02h.21c.13.02.27.02.4.03.06,0,.12,0,.19,0,.19,0,.39,0,.59,0,.08,0,.16,0,.24,0h.16c8.22-.03,15.72-3.11,21.43-8.18Z"/>
  <path class="cls-4" d="M62.62,62.48c.13,0,.27,0,.4,0-.13,0-.27,0-.4,0Z"/>
  <path class="cls-4" d="M63.54,62.46h0s0,0,0,0h0Z"/>
  <path class="cls-4" d="M63.99,59.71c-.18.01-.37.02-.55.03-.27.01-.54.01-.81.01-2.47,0-4.85-.41-7.06-1.17-8.5-2.91-14.64-10.92-14.76-20.37,0-.1,0-.19,0-.29v-.26c.14-10.17,8.26-18.41,18.39-18.74l-.08.23c-2.86.53-5.51,1.71-7.77,3.37-4.65,3.41-7.7,8.88-7.81,15.07,0,.11,0,.22,0,.34,0,7.12,3.41,13.45,8.69,17.44,3.32,2.5,7.37,4.08,11.77,4.35Z"/>
  <path class="cls-4" d="M72.04,12.01c-.03.09-.11.18-.23.26-.3.19-.85.35-1.57.48-.03,0-.05,0-.07.01-.43.07-.91.13-1.43.18-.41.04-.84.07-1.29.1l-.47.65-.91,1.25-.65.89h0l-1.15,1.59-.69.95-.25.33-.27.38-.08.11c-.14.16-.35.27-.59.27-.43,0-.77-.35-.77-.78,0-.04,0-.08,0-.12.04-.1.08-.21.12-.31.01-.03.02-.05.03-.08.02-.03.03-.07.04-.11l.75-2.05c.3-.88.56-1.75.8-2.62,0-.03.02-.06.02-.09h-4.91v-2.18c.42-.08.84-.15,1.26-.2.66-.09,1.33-.15,2-.19h1.65s0-.02,0-.03c-.24-.89-.52-1.79-.82-2.68l-.65-1.79-.1-.26s-.03-.07-.04-.11c-.01-.03-.02-.05-.03-.08-.04-.1-.08-.21-.12-.31,0-.04-.01-.08-.01-.12,0-.43.35-.78.78-.78.23,0,.44.1.59.27l.08.11.27.38.24.33.55.75.14.2,1.15,1.59h0l.65.89,1.39,1.91c.45.03.88.06,1.29.1.52.05,1,.11,1.43.18.02,0,.05,0,.07.01.73.13,1.28.29,1.57.48.12.08.2.16.23.26Z"/>
  <path class="cls-3" d="M94.03,54.49c-.54,0-1.01-.09-1.4-.27-.39-.18-.69-.43-.91-.76-.21-.33-.32-.71-.32-1.16h1.44c0,.31.11.55.32.72.21.17.5.26.86.26.31,0,.55-.06.73-.18.18-.12.27-.29.27-.51s-.11-.41-.32-.55c-.22-.14-.55-.26-1-.36-.76-.16-1.32-.4-1.69-.72-.36-.33-.54-.76-.54-1.28,0-.59.21-1.05.65-1.39.43-.34,1.02-.52,1.77-.52.51,0,.95.09,1.32.27.38.17.67.42.88.74.21.31.32.69.32,1.13h-1.42c0-.29-.1-.51-.28-.68-.19-.17-.45-.25-.79-.25-.31,0-.55.06-.73.19-.18.12-.27.29-.27.5,0,.19.1.36.29.49.2.14.54.26,1.04.38.8.19,1.39.45,1.74.77.36.32.53.73.53,1.24,0,.61-.22,1.09-.66,1.43-.44.35-1.04.52-1.81.52Z"/>
  <path class="cls-3" d="M102.66,54.36v-6.47h4.25v1.24h-2.79v1.34h2.54v1.23h-2.54v1.41h2.89v1.25h-4.35Z"/>
  <path class="cls-3" d="M113.21,54.36v-6.47h2.76c.49,0,.92.09,1.28.27.36.18.64.44.83.77.2.33.3.73.3,1.19s-.11.88-.32,1.22c-.22.34-.52.6-.9.77l1.34,2.24h-1.7l-1.15-2.02h-.97v2.02h-1.47ZM114.66,51.11h1.12c.36,0,.64-.08.83-.25.19-.17.29-.42.29-.73s-.1-.55-.29-.72c-.19-.17-.47-.26-.83-.26h-1.12v1.96Z"/>
  <path class="cls-3" d="M126.46,54.36l-2.49-6.47h1.58l.86,2.3.78,2.05,1.63-4.35h1.56l-2.48,6.47h-1.44Z"/>
  <path class="cls-3" d="M136.21,54.36v-6.47h1.47v6.47h-1.47Z"/>
  <path class="cls-3" d="M147.15,54.49c-.65,0-1.24-.14-1.74-.43-.5-.29-.9-.68-1.18-1.18-.28-.51-.42-1.09-.42-1.75s.14-1.24.42-1.74c.29-.51.68-.9,1.18-1.19.5-.29,1.08-.43,1.73-.43.54,0,1.05.11,1.5.32.46.21.84.51,1.15.89.31.38.53.83.66,1.34h-1.52c-.13-.36-.34-.64-.66-.84-.31-.21-.68-.32-1.09-.32-.36,0-.69.09-.97.25-.29.17-.51.4-.67.7-.16.29-.23.63-.23,1.02s.08.73.23,1.03c.16.29.38.52.66.69.29.17.61.25.97.25.43,0,.8-.11,1.12-.32.32-.22.54-.52.68-.89h1.52c-.1.52-.31.98-.62,1.38-.31.39-.7.69-1.17.91-.47.21-.98.32-1.55.32Z"/>
  <path class="cls-3" d="M156.59,54.36v-6.47h4.25v1.24h-2.79v1.34h2.54v1.23h-2.54v1.41h2.89v1.25h-4.35Z"/>
</svg>