<?xml version="1.0" encoding="UTF-8"?>
<svg id="Layer_1" data-name="Layer 1" xmlns="http://www.w3.org/2000/svg" viewBox="0 0 199 50">
  <defs>
    <style>
      .cls-1 {
        fill: #f5f6f6;
      }

      .cls-2 {
        fill: rgba(240, 88, 34, .4);
      }

      .cls-3, .cls-4 {
        fill: #1c478d;
      }

      .cls-4 {
        fill-rule: evenodd;
      }

      .cls-5 {
        fill: #f5af2f;
      }
    </style>
  </defs>
  <ellipse class="cls-5" cx="71.3" cy="27.98" rx="18.19" ry="16.45"/>
  <g>
    <path class="cls-1" d="M56.97,32.7v-9.98h4.26c.76,0,1.42.14,1.98.41.56.28,1,.67,1.3,1.18.3.51.46,1.13.46,1.84s-.17,1.36-.5,1.89c-.33.53-.8.93-1.4,1.19l2.07,3.47h-2.62l-1.79-3.11h-1.49v3.11h-2.27ZM59.21,27.68h1.73c.56,0,.99-.13,1.29-.39.3-.26.45-.64.45-1.12s-.15-.86-.45-1.12c-.3-.26-.73-.39-1.29-.39h-1.73v3.02Z"/>
    <path class="cls-1" d="M66.84,32.7l3.96-9.98h2.23l3.96,9.98h-2.43l-.67-1.73h-3.96l-.67,1.73h-2.43ZM70.51,29.19h2.81l-1.42-3.65-1.4,3.65Z"/>
    <path class="cls-1" d="M79.22,32.7v-9.98h3.95c1.06,0,1.98.21,2.77.63.79.42,1.4,1,1.84,1.75.44.75.66,1.62.66,2.6s-.22,1.87-.66,2.62c-.44.75-1.05,1.33-1.84,1.75s-1.71.63-2.77.63h-3.95ZM81.49,30.62h1.64c.59,0,1.11-.12,1.55-.36.45-.24.8-.58,1.05-1.02.25-.44.38-.95.38-1.53s-.13-1.1-.38-1.53c-.25-.43-.6-.77-1.05-1.01-.45-.24-.98-.37-1.58-.37h-1.61v5.82Z"/>
  </g>
  <path class="cls-2" d="M95.77,32.9c-1.02,0-1.92-.22-2.71-.66-.79-.44-1.41-1.05-1.86-1.83-.44-.78-.67-1.68-.67-2.7s.22-1.91.66-2.69c.44-.78,1.05-1.39,1.84-1.83.79-.44,1.69-.67,2.69-.67.81,0,1.55.14,2.24.43.69.28,1.27.68,1.75,1.2.48.52.82,1.13,1.02,1.84h-2.44c-.24-.44-.58-.78-1.02-1.02-.44-.24-.94-.36-1.51-.36s-1.09.13-1.54.4c-.45.27-.8.63-1.05,1.1-.25.47-.37,1-.37,1.61s.12,1.14.37,1.6c.25.47.6.84,1.04,1.11.45.27.98.41,1.59.41.73,0,1.34-.18,1.82-.55.49-.37.8-.86.94-1.47h-3.23v-1.75h5.63c.05.86-.03,1.64-.25,2.36-.22.71-.56,1.33-1.02,1.86-.46.53-1.02.93-1.68,1.21-.66.28-1.41.43-2.24.43Z"/>
  <path class="cls-2" d="M103.66,32.7v-9.98h6.56v1.91h-4.31v2.07h3.93v1.89h-3.93v2.19h4.47v1.92h-6.71Z"/>
  <path class="cls-2" d="M115.36,32.7l-3.21-9.98h2.41l.95,3.04,1.05,3.28,1.14-3.28,1.07-3.04h2.15l1.07,3.04,1.16,3.32,1.07-3.32.95-3.04h2.4l-3.23,9.98h-2.22l-2.27-6.46-2.27,6.46h-2.24Z"/>
  <path class="cls-2" d="M128.74,32.7l3.96-9.98h2.23l3.96,9.98h-2.43l-.67-1.73h-3.96l-.67,1.73h-2.43ZM132.42,29.19h2.81l-1.42-3.65-1.4,3.65Z"/>
  <path class="cls-2" d="M143.73,32.7v-3.49l-3.68-6.49h2.59l1.24,2.31,1,1.81.98-1.81,1.23-2.31h2.58l-3.67,6.45v3.53h-2.27Z"/>
  <path class="cls-5" d="M95.77,32.9c-1.02,0-1.92-.22-2.71-.66-.79-.44-1.41-1.05-1.86-1.83-.44-.78-.67-1.68-.67-2.7s.22-1.91.66-2.69c.44-.78,1.05-1.39,1.84-1.83.79-.44,1.69-.67,2.69-.67.81,0,1.55.14,2.24.43.69.28,1.27.68,1.75,1.2.48.52.82,1.13,1.02,1.84h-2.44c-.24-.44-.58-.78-1.02-1.02-.44-.24-.94-.36-1.51-.36s-1.09.13-1.54.4c-.45.27-.8.63-1.05,1.1-.25.47-.37,1-.37,1.61s.12,1.14.37,1.6c.25.47.6.84,1.04,1.11.45.27.98.41,1.59.41.73,0,1.34-.18,1.82-.55.49-.37.8-.86.94-1.47h-3.23v-1.75h5.63c.05.86-.03,1.64-.25,2.36-.22.71-.56,1.33-1.02,1.86-.46.53-1.02.93-1.68,1.21-.66.28-1.41.43-2.24.43Z"/>
  <path class="cls-5" d="M103.66,32.7v-9.98h6.56v1.91h-4.31v2.07h3.93v1.89h-3.93v2.19h4.47v1.92h-6.71Z"/>
  <path class="cls-5" d="M115.36,32.7l-3.21-9.98h2.41l.95,3.04,1.05,3.28,1.14-3.28,1.07-3.04h2.15l1.07,3.04,1.16,3.32,1.07-3.32.95-3.04h2.4l-3.23,9.98h-2.22l-2.27-6.46-2.27,6.46h-2.24Z"/>
  <path class="cls-5" d="M128.74,32.7l3.96-9.98h2.23l3.96,9.98h-2.43l-.67-1.73h-3.96l-.67,1.73h-2.43ZM132.42,29.19h2.81l-1.42-3.65-1.4,3.65Z"/>
  <path class="cls-5" d="M143.73,32.7v-3.49l-3.68-6.49h2.59l1.24,2.31,1,1.81.98-1.81,1.23-2.31h2.58l-3.67,6.45v3.53h-2.27Z"/>
  <path class="cls-4" d="M87.24,40.11c-3.9,5.19-10.12,8.55-17.11,8.55-7.55,0-14.18-3.91-17.99-9.81-2.16-3.34-3.41-7.31-3.41-11.58,0-.36,0-.71.03-1.07.56-11.32,9.91-20.32,21.37-20.32.47,0,.93.02,1.4.05-.07.07-.13.16-.18.27-.11.26-.09.55-.1.82,0,.11-.16.24-.22.32-.13.17-.21.34-.28.55-.02.05-.02.1-.03.14-.2,0-.4,0-.6,0-10.63,0-19.25,8.62-19.25,19.25,0,.17,0,.33,0,.5h0c0,.17.01.33.02.49h0c0,.17.02.33.03.49h0c.01.17.03.33.04.49h0c.03.32.07.64.12.96h0c.02.16.05.32.08.48h0c.03.16.06.31.09.47h0c.03.16.07.31.1.47h0c.07.29.14.57.22.85,0,.01,0,.03.01.04.01.05.03.09.04.14.03.1.06.19.08.29.02.05.03.1.05.16.03.09.06.18.09.27.02.05.03.1.05.15.03.1.07.19.1.28.02.04.03.09.05.13.05.14.1.27.16.41h0c.05.14.11.27.16.4.02.04.03.09.05.13.04.09.08.18.12.27.02.05.04.1.07.15.04.09.08.17.12.25.02.05.04.1.07.14.04.09.09.18.13.27.02.04.04.08.06.12.07.13.13.25.2.38,0,.01.01.03.02.04.06.11.12.22.19.34.02.04.05.08.07.12.05.08.1.17.15.25.03.05.05.09.08.13l.15.24s.06.09.08.13c.05.09.11.17.17.25.03.03.05.07.07.11.08.12.16.24.24.35.01.02.03.04.04.06.07.1.14.19.21.29.03.04.06.08.09.12.06.07.12.15.17.23.03.04.07.08.1.12.06.07.11.14.17.22.03.04.07.08.1.12.07.08.13.15.2.23.03.03.05.06.08.09.09.11.19.21.28.32l.06.06c.08.09.16.17.24.25l.1.1c.07.07.13.14.2.21.04.04.07.07.11.11.07.07.13.13.2.2.03.03.07.07.11.1.07.07.15.14.23.21.03.03.06.05.08.08.11.1.21.19.32.28.02.02.05.04.07.06.08.07.17.14.25.21.04.03.08.07.11.1.07.06.15.12.22.18.04.03.08.07.12.1.07.06.15.12.23.17.04.03.08.06.12.09.09.07.18.13.27.19.03.02.05.04.08.06.12.08.23.16.35.24.03.02.06.04.09.06.09.06.18.12.27.18.04.03.08.05.13.08.08.05.16.1.24.15.05.03.09.06.14.08l.24.14s.09.05.13.08c.1.06.2.11.3.17.03.02.05.03.08.04.13.07.25.14.38.2.03.02.07.03.1.05.09.05.19.1.28.14.05.02.09.05.14.07.08.04.17.08.25.12.05.02.1.04.15.07.09.04.17.08.26.11.05.02.09.04.14.06.11.05.22.09.33.13.02,0,.05.02.07.03.14.05.27.1.41.15l.11.04c.1.03.2.07.3.1.05.02.1.03.15.05.09.03.18.06.27.09.05.02.1.03.16.05.09.03.19.06.28.08.05.01.1.03.14.04.12.03.24.07.37.1.02,0,.04.01.06.01.14.04.28.07.43.1.04,0,.09.02.13.03.1.02.2.04.3.07.06.01.11.02.17.03.09.02.19.04.28.05.05,0,.11.02.16.03.1.02.2.03.3.05.05,0,.09.02.14.02.14.02.28.04.42.06,0,0,.02,0,.03,0,.15.02.3.03.45.05.05,0,.09,0,.14.01.1.01.21.02.31.03.04,0,.09,0,.13,0,.01,0,.02,0,.03,0,.1,0,.2.01.3.02h.17c.1.01.21.02.31.02.05,0,.1,0,.15,0,.15,0,.3,0,.46,0,.06,0,.13,0,.19,0h.12c6.45-.02,12.33-2.44,16.8-6.41Z"/>
  <path class="cls-4" d="M70.12,46.52c.1,0,.21,0,.31,0-.1,0-.21,0-.31,0Z"/>
  <path class="cls-4" d="M70.85,46.51h0s0,0,0,0h0Z"/>
  <path class="cls-4" d="M71.2,44.35c-.14,0-.29.02-.43.02-.21,0-.42.01-.64.01-1.94,0-3.8-.32-5.54-.92-6.67-2.28-11.48-8.56-11.57-15.97,0-.08,0-.15,0-.23v-.21c.11-7.97,6.48-14.44,14.42-14.69l-.07.18c-2.25.42-4.32,1.34-6.09,2.64-3.65,2.68-6.04,6.96-6.12,11.81,0,.09,0,.18,0,.27,0,5.59,2.67,10.55,6.81,13.67,2.6,1.96,5.78,3.2,9.23,3.41Z"/>
  <path class="cls-4" d="M77.51,6.95c-.03.07-.09.14-.18.2-.23.15-.67.28-1.23.38-.02,0-.04,0-.06,0-.33.06-.71.1-1.12.14-.32.03-.66.06-1.01.08l-.37.51-.71.98-.51.7h0l-.9,1.25-.54.74-.19.26-.21.3-.06.08c-.11.13-.28.21-.46.21-.34,0-.61-.27-.61-.61,0-.03,0-.07,0-.1.03-.08.07-.16.1-.24,0-.02.02-.04.02-.06.01-.03.03-.06.03-.08l.59-1.61c.23-.69.44-1.37.63-2.06,0-.02.01-.05.02-.07h-3.85v-1.71c.33-.06.66-.12.99-.16.52-.07,1.05-.12,1.57-.15h1.3s0-.02,0-.03c-.19-.7-.4-1.4-.64-2.1l-.51-1.4-.07-.21s-.02-.06-.03-.09c0-.02-.02-.04-.03-.06-.03-.08-.06-.16-.1-.24,0-.03,0-.06,0-.1,0-.34.27-.61.61-.61.18,0,.35.08.46.21l.06.08.21.3.19.26.43.59.11.15.9,1.25h0l.51.7,1.09,1.49c.35.02.69.05,1.01.08.41.04.78.09,1.12.14.02,0,.04,0,.06,0,.57.1,1,.23,1.23.38.1.06.16.13.18.2Z"/>
  <path class="cls-3" d="M94.75,40.26c-.42,0-.79-.07-1.1-.21-.3-.14-.54-.34-.71-.6-.17-.26-.25-.56-.25-.91h1.13c0,.24.08.43.25.57.17.14.39.2.67.2.24,0,.43-.05.57-.14.14-.1.21-.23.21-.4s-.09-.32-.25-.43c-.17-.11-.43-.2-.79-.29-.59-.12-1.03-.31-1.32-.57-.28-.26-.43-.59-.43-1,0-.46.17-.83.51-1.09.34-.27.8-.41,1.38-.41.4,0,.74.07,1.04.21.3.14.52.33.69.58.17.25.25.54.25.88h-1.11c0-.22-.07-.4-.22-.53-.15-.13-.36-.2-.62-.2-.24,0-.43.05-.57.15-.14.09-.21.23-.21.39,0,.15.08.28.23.39.16.11.43.21.81.3.63.15,1.09.35,1.37.6.28.25.42.57.42.97,0,.48-.17.85-.52,1.12-.34.27-.82.41-1.42.41Z"/>
  <path class="cls-3" d="M101.52,40.15v-5.07h3.33v.97h-2.19v1.05h1.99v.97h-1.99v1.11h2.27v.98h-3.41Z"/>
  <path class="cls-3" d="M109.79,40.15v-5.07h2.17c.38,0,.72.07,1,.21.28.14.5.34.65.6.16.26.24.57.24.93s-.09.69-.25.96c-.17.27-.4.47-.71.6l1.05,1.76h-1.33l-.9-1.58h-.76v1.58h-1.15ZM110.93,37.61h.88c.28,0,.5-.07.65-.2.15-.13.23-.33.23-.57s-.08-.43-.23-.57c-.15-.13-.37-.2-.65-.2h-.88v1.54Z"/>
  <path class="cls-3" d="M120.18,40.15l-1.95-5.07h1.24l.67,1.8.61,1.61,1.28-3.41h1.23l-1.94,5.07h-1.13Z"/>
  <path class="cls-3" d="M127.82,40.15v-5.07h1.15v5.07h-1.15Z"/>
  <path class="cls-3" d="M136.4,40.26c-.51,0-.97-.11-1.37-.34-.39-.22-.7-.53-.93-.93-.22-.4-.33-.85-.33-1.37s.11-.97.33-1.37c.22-.4.53-.71.93-.93.39-.22.85-.34,1.36-.34.43,0,.82.08,1.18.25.36.17.66.4.9.7.24.3.42.65.51,1.05h-1.19c-.1-.28-.27-.5-.51-.66-.25-.17-.53-.25-.86-.25-.28,0-.54.07-.76.2-.23.13-.4.31-.53.55-.12.23-.18.5-.18.8s.06.57.18.81c.13.23.3.41.52.54.22.13.48.2.76.2.33,0,.63-.08.88-.25.25-.17.43-.41.53-.7h1.19c-.08.41-.24.77-.49,1.08-.25.3-.55.54-.91.71-.37.17-.77.25-1.21.25Z"/>
  <path class="cls-3" d="M143.81,40.15v-5.07h3.33v.97h-2.19v1.05h1.99v.97h-1.99v1.11h2.27v.98h-3.41Z"/>
</svg>