<?xml version="1.0" encoding="UTF-8"?>
<svg xmlns="http://www.w3.org/2000/svg" xmlns:xlink="http://www.w3.org/1999/xlink" width="200px" height="70px" viewBox="0 0 200 70" version="1.1">
<g id="surface1">
<path style=" stroke:none;fill-rule:nonzero;fill:rgb(96.078432%,68.627453%,18.431373%);fill-opacity:1;" d="M 89.941406 39.171875 C 89.941406 26.453125 81.753906 16.140625 71.660156 16.140625 C 61.5625 16.140625 53.375 26.453125 53.375 39.171875 C 53.375 51.890625 61.5625 62.203125 71.660156 62.203125 C 81.753906 62.203125 89.941406 51.890625 89.941406 39.171875 Z M 89.941406 39.171875 "/>
<path style=" stroke:none;fill-rule:nonzero;fill:rgb(96.078432%,96.470588%,96.470588%);fill-opacity:1;" d="M 57.257812 45.78125 L 57.257812 31.808594 L 61.539062 31.808594 C 62.300781 31.808594 62.964844 32.003906 63.527344 32.382812 C 64.089844 32.773438 64.53125 33.320312 64.835938 34.035156 C 65.136719 34.746094 65.296875 35.617188 65.296875 36.609375 C 65.296875 37.605469 65.125 38.515625 64.792969 39.257812 C 64.460938 39.996094 63.988281 40.558594 63.386719 40.921875 L 65.46875 45.78125 L 62.835938 45.78125 L 61.035156 41.425781 L 59.539062 41.425781 L 59.539062 45.78125 Z M 59.507812 38.753906 L 61.246094 38.753906 C 61.808594 38.753906 62.242188 38.570312 62.542969 38.207031 C 62.84375 37.84375 62.996094 37.308594 62.996094 36.636719 C 62.996094 35.964844 62.84375 35.433594 62.542969 35.070312 C 62.242188 34.707031 61.808594 34.523438 61.246094 34.523438 L 59.507812 34.523438 Z M 59.507812 38.753906 "/>
<path style=" stroke:none;fill-rule:nonzero;fill:rgb(96.078432%,96.470588%,96.470588%);fill-opacity:1;" d="M 67.175781 45.78125 L 71.15625 31.808594 L 73.398438 31.808594 L 77.375 45.78125 L 74.933594 45.78125 L 74.261719 43.359375 L 70.28125 43.359375 L 69.609375 45.78125 L 67.164062 45.78125 Z M 70.863281 40.867188 L 73.6875 40.867188 L 72.261719 35.757812 L 70.855469 40.867188 Z M 70.863281 40.867188 "/>
<path style=" stroke:none;fill-rule:nonzero;fill:rgb(96.078432%,96.470588%,96.470588%);fill-opacity:1;" d="M 79.617188 45.78125 L 79.617188 31.808594 L 83.589844 31.808594 C 84.652344 31.808594 85.578125 32.101562 86.371094 32.691406 C 87.164062 33.277344 87.777344 34.089844 88.222656 35.140625 C 88.664062 36.191406 88.882812 37.40625 88.882812 38.78125 C 88.882812 40.152344 88.664062 41.398438 88.222656 42.449219 C 87.777344 43.496094 87.164062 44.308594 86.371094 44.898438 C 85.578125 45.484375 84.652344 45.78125 83.589844 45.78125 Z M 81.898438 42.867188 L 83.546875 42.867188 C 84.140625 42.867188 84.664062 42.699219 85.105469 42.363281 C 85.558594 42.027344 85.910156 41.550781 86.160156 40.9375 C 86.410156 40.320312 86.542969 39.605469 86.542969 38.792969 C 86.542969 37.980469 86.410156 37.253906 86.160156 36.652344 C 85.910156 36.050781 85.558594 35.574219 85.105469 35.238281 C 84.652344 34.902344 84.121094 34.71875 83.519531 34.71875 L 81.898438 34.71875 Z M 81.898438 42.867188 "/>
<path style=" stroke:none;fill-rule:nonzero;fill:rgb(94.117647%,34.509805%,13.333334%);fill-opacity:0.4;" d="M 96.25 46.058594 C 95.226562 46.058594 94.320312 45.753906 93.527344 45.136719 C 92.734375 44.519531 92.109375 43.664062 91.660156 42.574219 C 91.214844 41.480469 90.984375 40.222656 90.984375 38.792969 C 90.984375 37.367188 91.207031 36.121094 91.648438 35.027344 C 92.089844 33.9375 92.703125 33.082031 93.496094 32.464844 C 94.292969 31.851562 95.195312 31.527344 96.199219 31.527344 C 97.015625 31.527344 97.757812 31.722656 98.453125 32.128906 C 99.144531 32.523438 99.730469 33.082031 100.210938 33.808594 C 100.695312 34.539062 101.035156 35.390625 101.234375 36.386719 L 98.785156 36.386719 C 98.542969 35.769531 98.199219 35.292969 97.757812 34.957031 C 97.316406 34.621094 96.8125 34.453125 96.242188 34.453125 C 95.667969 34.453125 95.144531 34.636719 94.695312 35.015625 C 94.242188 35.390625 93.890625 35.894531 93.636719 36.554688 C 93.386719 37.210938 93.265625 37.953125 93.265625 38.808594 C 93.265625 39.660156 93.386719 40.402344 93.636719 41.046875 C 93.890625 41.707031 94.242188 42.222656 94.683594 42.601562 C 95.136719 42.980469 95.667969 43.175781 96.28125 43.175781 C 97.015625 43.175781 97.628906 42.925781 98.109375 42.40625 C 98.601562 41.886719 98.914062 41.203125 99.054688 40.347656 L 95.808594 40.347656 L 95.808594 37.898438 L 101.46875 37.898438 C 101.519531 39.101562 101.4375 40.195312 101.214844 41.203125 C 100.996094 42.195312 100.652344 43.0625 100.191406 43.804688 C 99.730469 44.546875 99.164062 45.109375 98.503906 45.5 C 97.839844 45.890625 97.085938 46.101562 96.25 46.101562 Z M 96.25 46.058594 "/>
<path style=" stroke:none;fill-rule:nonzero;fill:rgb(94.117647%,34.509805%,13.333334%);fill-opacity:0.4;" d="M 104.179688 45.78125 L 104.179688 31.808594 L 110.773438 31.808594 L 110.773438 34.480469 L 106.441406 34.480469 L 106.441406 37.378906 L 110.390625 37.378906 L 110.390625 40.027344 L 106.441406 40.027344 L 106.441406 43.09375 L 110.933594 43.09375 L 110.933594 45.78125 Z M 104.179688 45.78125 "/>
<path style=" stroke:none;fill-rule:nonzero;fill:rgb(94.117647%,34.509805%,13.333334%);fill-opacity:0.4;" d="M 115.941406 45.78125 L 112.714844 31.808594 L 115.136719 31.808594 L 116.089844 36.0625 L 117.144531 40.65625 L 118.292969 36.0625 L 119.367188 31.808594 L 121.527344 31.808594 L 122.601562 36.0625 L 123.769531 40.710938 L 124.84375 36.0625 L 125.800781 31.808594 L 128.210938 31.808594 L 124.964844 45.78125 L 122.734375 45.78125 L 120.453125 36.734375 L 118.171875 45.78125 L 115.917969 45.78125 Z M 115.941406 45.78125 "/>
<path style=" stroke:none;fill-rule:nonzero;fill:rgb(94.117647%,34.509805%,13.333334%);fill-opacity:0.4;" d="M 129.386719 45.78125 L 133.367188 31.808594 L 135.609375 31.808594 L 139.589844 45.78125 L 137.144531 45.78125 L 136.472656 43.359375 L 132.492188 43.359375 L 131.820312 45.78125 L 129.375 45.78125 Z M 133.085938 40.867188 L 135.910156 40.867188 L 134.480469 35.757812 L 133.074219 40.867188 Z M 133.085938 40.867188 "/>
<path style=" stroke:none;fill-rule:nonzero;fill:rgb(94.117647%,34.509805%,13.333334%);fill-opacity:0.4;" d="M 144.453125 45.78125 L 144.453125 40.894531 L 140.753906 31.808594 L 143.355469 31.808594 L 144.601562 35.042969 L 145.609375 37.574219 L 146.59375 35.042969 L 147.828125 31.808594 L 150.421875 31.808594 L 146.734375 40.839844 L 146.734375 45.78125 Z M 144.453125 45.78125 "/>
<path style=" stroke:none;fill-rule:nonzero;fill:rgb(96.078432%,68.627453%,18.431373%);fill-opacity:1;" d="M 96.25 46.058594 C 95.226562 46.058594 94.320312 45.753906 93.527344 45.136719 C 92.734375 44.519531 92.109375 43.664062 91.660156 42.574219 C 91.214844 41.480469 90.984375 40.222656 90.984375 38.792969 C 90.984375 37.367188 91.207031 36.121094 91.648438 35.027344 C 92.089844 33.9375 92.703125 33.082031 93.496094 32.464844 C 94.292969 31.851562 95.195312 31.527344 96.199219 31.527344 C 97.015625 31.527344 97.757812 31.722656 98.453125 32.128906 C 99.144531 32.523438 99.730469 33.082031 100.210938 33.808594 C 100.695312 34.539062 101.035156 35.390625 101.234375 36.386719 L 98.785156 36.386719 C 98.542969 35.769531 98.199219 35.292969 97.757812 34.957031 C 97.316406 34.621094 96.8125 34.453125 96.242188 34.453125 C 95.667969 34.453125 95.144531 34.636719 94.695312 35.015625 C 94.242188 35.390625 93.890625 35.894531 93.636719 36.554688 C 93.386719 37.210938 93.265625 37.953125 93.265625 38.808594 C 93.265625 39.660156 93.386719 40.402344 93.636719 41.046875 C 93.890625 41.707031 94.242188 42.222656 94.683594 42.601562 C 95.136719 42.980469 95.667969 43.175781 96.28125 43.175781 C 97.015625 43.175781 97.628906 42.925781 98.109375 42.40625 C 98.601562 41.886719 98.914062 41.203125 99.054688 40.347656 L 95.808594 40.347656 L 95.808594 37.898438 L 101.46875 37.898438 C 101.519531 39.101562 101.4375 40.195312 101.214844 41.203125 C 100.996094 42.195312 100.652344 43.0625 100.191406 43.804688 C 99.730469 44.546875 99.164062 45.109375 98.503906 45.5 C 97.839844 45.890625 97.085938 46.101562 96.25 46.101562 Z M 96.25 46.058594 "/>
<path style=" stroke:none;fill-rule:nonzero;fill:rgb(96.078432%,68.627453%,18.431373%);fill-opacity:1;" d="M 104.179688 45.78125 L 104.179688 31.808594 L 110.773438 31.808594 L 110.773438 34.480469 L 106.441406 34.480469 L 106.441406 37.378906 L 110.390625 37.378906 L 110.390625 40.027344 L 106.441406 40.027344 L 106.441406 43.09375 L 110.933594 43.09375 L 110.933594 45.78125 Z M 104.179688 45.78125 "/>
<path style=" stroke:none;fill-rule:nonzero;fill:rgb(96.078432%,68.627453%,18.431373%);fill-opacity:1;" d="M 115.941406 45.78125 L 112.714844 31.808594 L 115.136719 31.808594 L 116.089844 36.0625 L 117.144531 40.65625 L 118.292969 36.0625 L 119.367188 31.808594 L 121.527344 31.808594 L 122.601562 36.0625 L 123.769531 40.710938 L 124.84375 36.0625 L 125.800781 31.808594 L 128.210938 31.808594 L 124.964844 45.78125 L 122.734375 45.78125 L 120.453125 36.734375 L 118.171875 45.78125 L 115.917969 45.78125 Z M 115.941406 45.78125 "/>
<path style=" stroke:none;fill-rule:nonzero;fill:rgb(96.078432%,68.627453%,18.431373%);fill-opacity:1;" d="M 129.386719 45.78125 L 133.367188 31.808594 L 135.609375 31.808594 L 139.589844 45.78125 L 137.144531 45.78125 L 136.472656 43.359375 L 132.492188 43.359375 L 131.820312 45.78125 L 129.375 45.78125 Z M 133.085938 40.867188 L 135.910156 40.867188 L 134.480469 35.757812 L 133.074219 40.867188 Z M 133.085938 40.867188 "/>
<path style=" stroke:none;fill-rule:nonzero;fill:rgb(96.078432%,68.627453%,18.431373%);fill-opacity:1;" d="M 144.453125 45.78125 L 144.453125 40.894531 L 140.753906 31.808594 L 143.355469 31.808594 L 144.601562 35.042969 L 145.609375 37.574219 L 146.59375 35.042969 L 147.828125 31.808594 L 150.421875 31.808594 L 146.734375 40.839844 L 146.734375 45.78125 Z M 144.453125 45.78125 "/>
<path style=" stroke:none;fill-rule:evenodd;fill:rgb(10.980392%,27.843139%,55.29412%);fill-opacity:1;" d="M 87.679688 56.152344 C 83.757812 63.421875 77.507812 68.125 70.480469 68.125 C 62.894531 68.125 56.230469 62.648438 52.402344 54.390625 C 50.230469 49.714844 48.976562 44.15625 48.976562 38.179688 C 48.976562 37.675781 48.976562 37.183594 49.003906 36.679688 C 49.566406 20.832031 58.964844 8.230469 70.480469 8.230469 C 70.953125 8.230469 71.417969 8.261719 71.890625 8.300781 C 71.820312 8.398438 71.757812 8.527344 71.707031 8.679688 C 71.597656 9.042969 71.617188 9.449219 71.609375 9.828125 C 71.609375 9.980469 71.445312 10.164062 71.386719 10.277344 C 71.257812 10.515625 71.175781 10.753906 71.105469 11.046875 C 71.085938 11.117188 71.085938 11.1875 71.074219 11.242188 C 70.875 11.242188 70.671875 11.242188 70.472656 11.242188 C 59.789062 11.242188 51.125 23.308594 51.125 38.191406 C 51.125 38.429688 51.125 38.652344 51.125 38.890625 C 51.125 39.128906 51.136719 39.355469 51.144531 39.578125 C 51.144531 39.816406 51.164062 40.039062 51.175781 40.265625 C 51.1875 40.503906 51.207031 40.726562 51.214844 40.949219 C 51.246094 41.398438 51.285156 41.847656 51.335938 42.292969 C 51.355469 42.519531 51.386719 42.742188 51.417969 42.964844 C 51.445312 43.191406 51.476562 43.398438 51.507812 43.625 C 51.539062 43.847656 51.578125 44.058594 51.609375 44.28125 C 51.679688 44.6875 51.75 45.078125 51.828125 45.472656 C 51.828125 45.484375 51.828125 45.515625 51.839844 45.527344 C 51.847656 45.597656 51.871094 45.652344 51.878906 45.722656 C 51.910156 45.863281 51.941406 45.988281 51.960938 46.128906 C 51.980469 46.199219 51.988281 46.269531 52.011719 46.355469 C 52.039062 46.480469 52.070312 46.605469 52.101562 46.730469 C 52.121094 46.800781 52.128906 46.871094 52.152344 46.941406 C 52.179688 47.082031 52.222656 47.207031 52.25 47.335938 C 52.269531 47.390625 52.28125 47.460938 52.300781 47.515625 C 52.351562 47.710938 52.402344 47.894531 52.460938 48.089844 C 52.511719 48.285156 52.574219 48.46875 52.625 48.648438 C 52.644531 48.707031 52.652344 48.777344 52.671875 48.832031 C 52.714844 48.957031 52.753906 49.085938 52.792969 49.210938 C 52.8125 49.28125 52.835938 49.351562 52.863281 49.421875 C 52.90625 49.546875 52.945312 49.65625 52.984375 49.769531 C 53.003906 49.839844 53.023438 49.910156 53.054688 49.964844 C 53.09375 50.09375 53.144531 50.21875 53.1875 50.34375 C 53.207031 50.398438 53.226562 50.457031 53.246094 50.511719 C 53.316406 50.695312 53.375 50.863281 53.445312 51.042969 C 53.445312 51.058594 53.457031 51.085938 53.46875 51.101562 C 53.527344 51.253906 53.589844 51.40625 53.660156 51.574219 C 53.679688 51.632812 53.707031 51.6875 53.730469 51.742188 C 53.777344 51.855469 53.828125 51.980469 53.878906 52.09375 C 53.910156 52.164062 53.929688 52.21875 53.960938 52.277344 L 54.109375 52.613281 C 54.109375 52.613281 54.171875 52.738281 54.191406 52.792969 C 54.242188 52.921875 54.300781 53.03125 54.363281 53.144531 C 54.390625 53.1875 54.410156 53.242188 54.433594 53.296875 C 54.511719 53.464844 54.59375 53.632812 54.671875 53.789062 C 54.683594 53.816406 54.703125 53.84375 54.714844 53.871094 C 54.785156 54.011719 54.855469 54.136719 54.925781 54.277344 C 54.953125 54.335938 54.984375 54.390625 55.015625 54.445312 C 55.074219 54.542969 55.136719 54.65625 55.1875 54.769531 C 55.214844 54.824219 55.257812 54.878906 55.285156 54.9375 C 55.347656 55.035156 55.398438 55.132812 55.457031 55.242188 C 55.488281 55.300781 55.527344 55.355469 55.558594 55.410156 C 55.628906 55.523438 55.6875 55.621094 55.757812 55.734375 C 55.789062 55.777344 55.808594 55.816406 55.839844 55.859375 C 55.929688 56.015625 56.03125 56.152344 56.121094 56.308594 L 56.179688 56.390625 C 56.261719 56.519531 56.339844 56.628906 56.421875 56.742188 L 56.523438 56.882812 C 56.59375 56.980469 56.652344 57.078125 56.722656 57.175781 C 56.765625 57.230469 56.792969 57.273438 56.835938 57.328125 C 56.90625 57.429688 56.964844 57.511719 57.035156 57.609375 C 57.066406 57.652344 57.105469 57.707031 57.144531 57.75 C 57.214844 57.847656 57.296875 57.945312 57.375 58.042969 C 57.40625 58.085938 57.4375 58.113281 57.457031 58.15625 C 57.566406 58.296875 57.667969 58.421875 57.777344 58.546875 C 57.800781 58.574219 57.828125 58.605469 57.847656 58.632812 C 57.929688 58.730469 58.019531 58.828125 58.101562 58.925781 C 58.140625 58.96875 58.179688 59.023438 58.210938 59.066406 C 58.28125 59.148438 58.363281 59.234375 58.433594 59.316406 C 58.472656 59.359375 58.511719 59.414062 58.554688 59.457031 C 58.625 59.542969 58.703125 59.625 58.785156 59.695312 C 58.824219 59.738281 58.863281 59.78125 58.90625 59.820312 C 58.996094 59.921875 59.085938 60.003906 59.175781 60.089844 C 59.207031 60.117188 59.226562 60.144531 59.257812 60.171875 C 59.375 60.285156 59.488281 60.394531 59.609375 60.507812 C 59.636719 60.535156 59.667969 60.5625 59.699219 60.59375 C 59.789062 60.675781 59.878906 60.761719 59.96875 60.84375 C 60.011719 60.886719 60.050781 60.914062 60.101562 60.957031 C 60.179688 61.027344 60.261719 61.097656 60.339844 61.164062 C 60.390625 61.207031 60.433594 61.25 60.480469 61.277344 L 60.722656 61.472656 C 60.722656 61.472656 60.8125 61.542969 60.855469 61.585938 C 60.953125 61.671875 61.054688 61.738281 61.15625 61.824219 C 61.1875 61.851562 61.207031 61.867188 61.234375 61.878906 C 61.367188 61.976562 61.488281 62.074219 61.617188 62.160156 C 61.648438 62.1875 61.6875 62.203125 61.71875 62.230469 C 61.808594 62.300781 61.910156 62.371094 62 62.425781 C 62.050781 62.453125 62.089844 62.496094 62.140625 62.523438 C 62.222656 62.578125 62.3125 62.636719 62.390625 62.691406 C 62.441406 62.71875 62.492188 62.746094 62.542969 62.789062 C 62.632812 62.847656 62.714844 62.902344 62.804688 62.945312 C 62.855469 62.972656 62.894531 63 62.945312 63.027344 C 63.054688 63.097656 63.164062 63.152344 63.277344 63.210938 C 63.296875 63.210938 63.328125 63.238281 63.347656 63.253906 C 63.488281 63.320312 63.617188 63.390625 63.757812 63.460938 L 63.871094 63.519531 C 63.96875 63.558594 64.070312 63.617188 64.171875 63.65625 C 64.222656 63.6875 64.269531 63.699219 64.320312 63.726562 C 64.410156 63.769531 64.503906 63.8125 64.59375 63.855469 C 64.644531 63.882812 64.695312 63.894531 64.753906 63.925781 C 64.84375 63.964844 64.945312 64.007812 65.035156 64.035156 C 65.085938 64.050781 65.136719 64.078125 65.175781 64.09375 C 65.296875 64.132812 65.417969 64.191406 65.546875 64.230469 C 65.566406 64.230469 65.589844 64.246094 65.609375 64.246094 C 65.75 64.300781 65.890625 64.34375 66.039062 64.386719 C 66.082031 64.386719 66.128906 64.414062 66.171875 64.429688 C 66.269531 64.457031 66.371094 64.484375 66.472656 64.527344 C 66.53125 64.539062 66.582031 64.554688 66.644531 64.566406 C 66.734375 64.597656 66.835938 64.625 66.925781 64.636719 C 66.976562 64.636719 67.035156 64.664062 67.085938 64.679688 C 67.1875 64.707031 67.285156 64.722656 67.386719 64.75 C 67.4375 64.75 67.476562 64.777344 67.527344 64.777344 C 67.667969 64.804688 67.808594 64.835938 67.949219 64.863281 C 67.949219 64.863281 67.96875 64.863281 67.980469 64.863281 C 68.128906 64.890625 68.28125 64.902344 68.433594 64.933594 C 68.480469 64.933594 68.523438 64.933594 68.574219 64.945312 C 68.671875 64.960938 68.785156 64.972656 68.882812 64.988281 C 68.925781 64.988281 68.976562 64.988281 69.015625 64.988281 C 69.023438 64.988281 69.035156 64.988281 69.046875 64.988281 C 69.144531 64.988281 69.246094 65.003906 69.347656 65.015625 L 69.519531 65.015625 C 69.617188 65.03125 69.730469 65.042969 69.828125 65.042969 C 69.878906 65.042969 69.929688 65.042969 69.980469 65.042969 C 70.128906 65.042969 70.28125 65.042969 70.441406 65.042969 C 70.503906 65.042969 70.574219 65.042969 70.632812 65.042969 L 70.753906 65.042969 C 77.234375 65.015625 83.144531 61.628906 87.636719 56.070312 Z M 87.679688 56.152344 "/>
<path style=" stroke:none;fill-rule:evenodd;fill:rgb(10.980392%,27.843139%,55.29412%);fill-opacity:1;" d="M 71.558594 62.089844 C 71.417969 62.089844 71.265625 62.117188 71.125 62.117188 C 70.914062 62.117188 70.703125 62.132812 70.480469 62.132812 C 68.53125 62.132812 66.664062 61.683594 64.914062 60.84375 C 58.210938 57.652344 53.375 48.859375 53.285156 38.484375 C 53.285156 38.375 53.285156 38.277344 53.285156 38.164062 L 53.285156 37.871094 C 53.398438 26.710938 59.800781 17.652344 67.777344 17.304688 L 67.707031 17.554688 C 65.445312 18.144531 63.367188 19.433594 61.589844 21.253906 C 57.917969 25.003906 55.519531 30.996094 55.4375 37.785156 C 55.4375 37.910156 55.4375 38.039062 55.4375 38.164062 C 55.4375 45.988281 58.121094 52.933594 62.28125 57.300781 C 64.894531 60.046875 68.089844 61.78125 71.558594 62.074219 Z M 71.558594 62.089844 "/>
<path style=" stroke:none;fill-rule:evenodd;fill:rgb(10.980392%,27.843139%,55.29412%);fill-opacity:1;" d="M 77.898438 9.730469 C 77.871094 9.828125 77.808594 9.925781 77.71875 10.011719 C 77.488281 10.21875 77.046875 10.402344 76.480469 10.542969 C 76.460938 10.542969 76.441406 10.542969 76.421875 10.542969 C 76.089844 10.625 75.707031 10.683594 75.296875 10.738281 C 74.976562 10.78125 74.632812 10.820312 74.28125 10.851562 L 73.910156 11.5625 L 73.195312 12.9375 L 72.683594 13.914062 L 71.777344 15.664062 L 71.234375 16.703125 L 71.046875 17.066406 L 70.835938 17.484375 L 70.773438 17.597656 C 70.664062 17.78125 70.492188 17.890625 70.3125 17.890625 C 69.96875 17.890625 69.699219 17.515625 69.699219 17.039062 C 69.699219 16.996094 69.699219 16.941406 69.699219 16.898438 C 69.730469 16.785156 69.769531 16.675781 69.800781 16.5625 C 69.800781 16.535156 69.820312 16.507812 69.820312 16.476562 C 69.828125 16.4375 69.847656 16.394531 69.847656 16.367188 L 70.441406 14.113281 C 70.671875 13.144531 70.882812 12.195312 71.074219 11.226562 C 71.074219 11.199219 71.085938 11.15625 71.09375 11.128906 L 67.226562 11.128906 L 67.226562 8.734375 C 67.558594 8.652344 67.890625 8.566406 68.222656 8.511719 C 68.742188 8.414062 69.277344 8.34375 69.800781 8.300781 L 71.105469 8.300781 C 71.105469 8.300781 71.105469 8.273438 71.105469 8.261719 C 70.914062 7.28125 70.703125 6.300781 70.460938 5.320312 L 69.949219 3.359375 L 69.878906 3.066406 C 69.878906 3.066406 69.859375 2.980469 69.847656 2.941406 C 69.847656 2.910156 69.828125 2.882812 69.820312 2.855469 C 69.789062 2.742188 69.757812 2.632812 69.71875 2.519531 C 69.71875 2.476562 69.71875 2.4375 69.71875 2.378906 C 69.71875 1.902344 69.988281 1.527344 70.332031 1.527344 C 70.511719 1.527344 70.683594 1.636719 70.792969 1.820312 L 70.855469 1.933594 L 71.066406 2.351562 L 71.257812 2.714844 L 71.6875 3.542969 L 71.800781 3.753906 L 72.703125 5.503906 L 73.214844 6.480469 L 74.3125 8.566406 C 74.664062 8.597656 75.003906 8.636719 75.328125 8.679688 C 75.738281 8.734375 76.109375 8.804688 76.453125 8.875 C 76.472656 8.875 76.492188 8.875 76.511719 8.875 C 77.085938 9.015625 77.519531 9.199219 77.75 9.40625 C 77.847656 9.492188 77.910156 9.589844 77.929688 9.6875 Z M 77.898438 9.730469 "/>
<path style=" stroke:none;fill-rule:nonzero;fill:rgb(10.980392%,27.843139%,55.29412%);fill-opacity:1;" d="M 95.226562 56.363281 C 94.804688 56.363281 94.433594 56.265625 94.121094 56.070312 C 93.820312 55.875 93.578125 55.59375 93.40625 55.230469 C 93.234375 54.867188 93.15625 54.445312 93.15625 53.957031 L 94.292969 53.957031 C 94.292969 54.292969 94.371094 54.558594 94.542969 54.753906 C 94.714844 54.949219 94.933594 55.035156 95.214844 55.035156 C 95.457031 55.035156 95.648438 54.964844 95.789062 54.839844 C 95.929688 54.699219 96 54.515625 96 54.277344 C 96 54.039062 95.910156 53.828125 95.75 53.675781 C 95.578125 53.523438 95.316406 53.394531 94.953125 53.269531 C 94.363281 53.101562 93.917969 52.835938 93.628906 52.472656 C 93.347656 52.109375 93.195312 51.644531 93.195312 51.070312 C 93.195312 50.429688 93.367188 49.910156 93.707031 49.546875 C 94.050781 49.167969 94.511719 48.972656 95.09375 48.972656 C 95.496094 48.972656 95.839844 49.070312 96.140625 49.265625 C 96.441406 49.460938 96.664062 49.726562 96.835938 50.078125 C 97.003906 50.429688 97.085938 50.835938 97.085938 51.308594 L 95.96875 51.308594 C 95.96875 51.003906 95.898438 50.75 95.75 50.566406 C 95.597656 50.386719 95.386719 50.289062 95.125 50.289062 C 94.882812 50.289062 94.695312 50.359375 94.554688 50.496094 C 94.410156 50.625 94.339844 50.820312 94.339844 51.042969 C 94.339844 51.253906 94.421875 51.4375 94.574219 51.589844 C 94.734375 51.742188 95.003906 51.882812 95.386719 52.011719 C 96.019531 52.21875 96.480469 52.5 96.765625 52.851562 C 97.046875 53.199219 97.1875 53.648438 97.1875 54.207031 C 97.1875 54.878906 97.015625 55.398438 96.664062 55.777344 C 96.320312 56.152344 95.839844 56.351562 95.234375 56.351562 Z M 95.226562 56.363281 "/>
<path style=" stroke:none;fill-rule:nonzero;fill:rgb(10.980392%,27.843139%,55.29412%);fill-opacity:1;" d="M 102.03125 56.210938 L 102.03125 49.113281 L 105.375 49.113281 L 105.375 50.46875 L 103.175781 50.46875 L 103.175781 51.941406 L 105.175781 51.941406 L 105.175781 53.296875 L 103.175781 53.296875 L 103.175781 54.851562 L 105.457031 54.851562 L 105.457031 56.222656 L 102.03125 56.222656 Z M 102.03125 56.210938 "/>
<path style=" stroke:none;fill-rule:nonzero;fill:rgb(10.980392%,27.843139%,55.29412%);fill-opacity:1;" d="M 110.339844 56.210938 L 110.339844 49.113281 L 112.523438 49.113281 C 112.90625 49.113281 113.246094 49.210938 113.527344 49.40625 C 113.808594 49.601562 114.03125 49.882812 114.179688 50.246094 C 114.339844 50.609375 114.421875 51.042969 114.421875 51.546875 C 114.421875 52.050781 114.332031 52.515625 114.171875 52.890625 C 114 53.269531 113.769531 53.550781 113.457031 53.730469 L 114.511719 56.195312 L 113.175781 56.195312 L 112.269531 53.984375 L 111.507812 53.984375 L 111.507812 56.195312 L 110.351562 56.195312 Z M 111.488281 52.652344 L 112.371094 52.652344 C 112.652344 52.652344 112.875 52.554688 113.023438 52.375 C 113.175781 52.191406 113.257812 51.910156 113.257812 51.574219 C 113.257812 51.238281 113.175781 50.972656 113.023438 50.777344 C 112.875 50.597656 112.652344 50.496094 112.371094 50.496094 L 111.488281 50.496094 Z M 111.488281 52.652344 "/>
<path style=" stroke:none;fill-rule:nonzero;fill:rgb(10.980392%,27.843139%,55.29412%);fill-opacity:1;" d="M 120.785156 56.210938 L 118.824219 49.113281 L 120.070312 49.113281 L 120.742188 51.632812 L 121.355469 53.886719 L 122.644531 49.113281 L 123.878906 49.113281 L 121.929688 56.210938 Z M 120.785156 56.210938 "/>
<path style=" stroke:none;fill-rule:nonzero;fill:rgb(10.980392%,27.843139%,55.29412%);fill-opacity:1;" d="M 128.460938 56.210938 L 128.460938 49.113281 L 129.617188 49.113281 L 129.617188 56.210938 Z M 128.460938 56.210938 "/>
<path style=" stroke:none;fill-rule:nonzero;fill:rgb(10.980392%,27.843139%,55.29412%);fill-opacity:1;" d="M 137.085938 56.363281 C 136.574219 56.363281 136.109375 56.210938 135.707031 55.886719 C 135.316406 55.578125 135.003906 55.144531 134.773438 54.585938 C 134.554688 54.027344 134.441406 53.394531 134.441406 52.667969 C 134.441406 51.941406 134.554688 51.308594 134.773438 50.75 C 134.996094 50.191406 135.304688 49.757812 135.707031 49.449219 C 136.101562 49.140625 136.5625 48.972656 137.074219 48.972656 C 137.507812 48.972656 137.898438 49.085938 138.261719 49.320312 C 138.625 49.558594 138.925781 49.882812 139.164062 50.300781 C 139.40625 50.722656 139.589844 51.210938 139.679688 51.773438 L 138.480469 51.773438 C 138.382812 51.378906 138.210938 51.070312 137.96875 50.847656 C 137.71875 50.609375 137.4375 50.496094 137.105469 50.496094 C 136.824219 50.496094 136.5625 50.597656 136.339844 50.777344 C 136.109375 50.960938 135.941406 51.210938 135.808594 51.546875 C 135.6875 51.871094 135.628906 52.246094 135.628906 52.667969 C 135.628906 53.089844 135.6875 53.464844 135.808594 53.800781 C 135.941406 54.125 136.109375 54.375 136.332031 54.558594 C 136.554688 54.738281 136.8125 54.839844 137.09375 54.839844 C 137.425781 54.839844 137.730469 54.726562 137.980469 54.488281 C 138.230469 54.25 138.410156 53.914062 138.511719 53.507812 L 139.707031 53.507812 C 139.628906 54.082031 139.46875 54.585938 139.214844 55.019531 C 138.964844 55.441406 138.664062 55.777344 138.300781 56.015625 C 137.929688 56.253906 137.527344 56.363281 137.085938 56.363281 Z M 137.085938 56.363281 "/>
<path style=" stroke:none;fill-rule:nonzero;fill:rgb(10.980392%,27.843139%,55.29412%);fill-opacity:1;" d="M 144.53125 56.210938 L 144.53125 49.113281 L 147.878906 49.113281 L 147.878906 50.46875 L 145.679688 50.46875 L 145.679688 51.941406 L 147.679688 51.941406 L 147.679688 53.296875 L 145.679688 53.296875 L 145.679688 54.851562 L 147.960938 54.851562 L 147.960938 56.222656 L 144.53125 56.222656 Z M 144.53125 56.210938 "/>
</g>
</svg>
